<svg viewBox="0 0 28 29" fill="none" xmlns="http://www.w3.org/2000/svg">
    <path
        d="M11.05 20C10.55 20 10.125 19.825 9.775 19.475C9.425 19.125 9.25 18.7 9.25 18.2V6.8C9.25 6.3 9.425 5.875 9.775 5.525C10.125 5.175 10.55 5 11.05 5H19.45C19.95 5 20.375 5.175 20.725 5.525C21.075 5.875 21.25 6.3 21.25 6.8V18.2C21.25 18.7 21.075 19.125 20.725 19.475C20.375 19.825 19.95 20 19.45 20H11.05ZM11.05 18.5H19.45C19.5167 18.5 19.5833 18.4667 19.65 18.4C19.7167 18.3333 19.75 18.2667 19.75 18.2V6.8C19.75 6.73333 19.7167 6.66667 19.65 6.6C19.5833 6.53333 19.5167 6.5 19.45 6.5H11.05C10.9833 6.5 10.9167 6.53333 10.85 6.6C10.7833 6.66667 10.75 6.73333 10.75 6.8V18.2C10.75 18.2667 10.7833 18.3333 10.85 18.4C10.9167 18.4667 10.9833 18.5 11.05 18.5ZM7.55 23.5C7.05 23.5 6.625 23.325 6.275 22.975C5.925 22.625 5.75 22.2 5.75 21.7V9.55C5.75 9.35 5.81667 9.175 5.95 9.025C6.1 8.875 6.28333 8.8 6.5 8.8C6.71667 8.8 6.89167 8.875 7.025 9.025C7.175 9.175 7.25 9.35 7.25 9.55V21.7C7.25 21.7667 7.28333 21.8333 7.35 21.9C7.41667 21.9667 7.48333 22 7.55 22H16.7C16.9 22 17.075 22.075 17.225 22.225C17.375 22.3583 17.45 22.5333 17.45 22.75C17.45 22.9667 17.375 23.15 17.225 23.3C17.075 23.4333 16.9 23.5 16.7 23.5H7.55ZM10.75 18.5C10.75 18.5 10.75 18.4667 10.75 18.4C10.75 18.3333 10.75 18.2667 10.75 18.2V6.8C10.75 6.73333 10.75 6.66667 10.75 6.6C10.75 6.53333 10.75 6.5 10.75 6.5C10.75 6.5 10.75 6.53333 10.75 6.6C10.75 6.66667 10.75 6.73333 10.75 6.8V18.2C10.75 18.2667 10.75 18.3333 10.75 18.4C10.75 18.4667 10.75 18.5 10.75 18.5Z"
        fill="#225EA3" />
</svg>