<svg width="14" height="19" viewBox="0 0 14 19" fill="none" xmlns="http://www.w3.org/2000/svg">
    <path
        d="M3.79004 2.37598C5.10172 0.104087 8.00741 -0.674957 10.2793 0.636719C12.5397 1.94175 13.3211 4.82412 12.0371 7.09082C12.8668 7.22794 13.4999 7.94889 13.5 8.81738V17.8174C13.5 18.2316 13.1642 18.5674 12.75 18.5674H0.75C0.335786 18.5674 0 18.2316 0 17.8174V8.81738C0.000109615 7.85098 0.783569 7.06738 1.75 7.06738H10.3193L10.7188 6.37598C11.6161 4.82164 11.0835 2.83408 9.5293 1.93652C7.97485 1.03906 5.98731 1.57153 5.08984 3.12598L4.39941 4.32031C4.19234 4.67897 3.73369 4.80266 3.375 4.5957C3.01628 4.3886 2.89348 3.92903 3.10059 3.57031L3.79004 2.37598ZM1.75 8.56738C1.612 8.56738 1.50011 8.6794 1.5 8.81738V17.0674H12V8.81738C11.9999 8.6794 11.888 8.56738 11.75 8.56738H10.8262C10.7755 8.57258 10.724 8.57265 10.6729 8.56738H1.75ZM6.75 10.8174C7.57836 10.8174 8.24989 11.489 8.25 12.3174C8.25 12.8726 7.94835 13.3578 7.5 13.6172V14.8174C7.5 15.2316 7.16421 15.5674 6.75 15.5674C6.33579 15.5674 6 15.2316 6 14.8174V13.6172C5.55165 13.3578 5.25 12.8726 5.25 12.3174C5.25011 11.489 5.92164 10.8174 6.75 10.8174Z"
        fill="#202733" />
</svg>