<svg width="14" height="19" viewBox="0 0 14 19" fill="none" xmlns="http://www.w3.org/2000/svg">
    <path
        d="M6.75 0C9.37335 0 11.5 2.12665 11.5 4.75V7H11.75C12.7165 7 13.5 7.7835 13.5 8.75V17.75C13.5 18.1642 13.1642 18.5 12.75 18.5H0.75C0.335786 18.5 0 18.1642 0 17.75V8.75C0 7.7835 0.783502 7 1.75 7H2V4.75C2 2.12665 4.12665 0 6.75 0ZM1.75 8.5C1.61193 8.5 1.5 8.61193 1.5 8.75V17H12V8.75C12 8.61193 11.8881 8.5 11.75 8.5H1.75ZM6.75 10.75C7.57843 10.75 8.25 11.4216 8.25 12.25C8.25 12.8052 7.94835 13.2904 7.5 13.5498V14.75C7.5 15.1642 7.16421 15.5 6.75 15.5C6.33579 15.5 6 15.1642 6 14.75V13.5498C5.55165 13.2904 5.25 12.8052 5.25 12.25C5.25 11.4216 5.92157 10.75 6.75 10.75ZM6.75 1.5C4.95507 1.5 3.5 2.95507 3.5 4.75V7H10V4.75C10 2.95507 8.54493 1.5 6.75 1.5Z"
        fill="#202733" />
</svg>